<svg width="11" height="12" viewBox="0 0 11 12" fill="none" xmlns="http://www.w3.org/2000/svg">
<path opacity="0.1" fill-rule="evenodd" clip-rule="evenodd" d="M0.164795 5.72724C0.164795 2.77701 2.55643 0.385376 5.50666 0.385376C8.45689 0.385376 10.8485 2.77701 10.8485 5.72724C10.8485 8.67747 8.45689 11.0691 5.50666 11.0691C2.55643 11.0691 0.164795 8.67747 0.164795 5.72724Z" fill="white"/>
<path fill-rule="evenodd" clip-rule="evenodd" d="M7.73272 3.89082C7.9779 3.9581 8.17098 4.15633 8.23651 4.40807C8.35558 4.86431 8.35558 5.81627 8.35558 5.81627C8.35558 5.81627 8.35558 6.76819 8.23651 7.22447C8.17098 7.47621 7.9779 7.67444 7.73272 7.74175C7.28841 7.86398 5.50659 7.86398 5.50659 7.86398C5.50659 7.86398 3.72477 7.86398 3.28042 7.74175C3.03525 7.67444 2.84216 7.47621 2.77664 7.22447C2.65759 6.76819 2.65759 5.81627 2.65759 5.81627C2.65759 5.81627 2.65759 4.86431 2.77664 4.40807C2.84216 4.15633 3.03525 3.9581 3.28042 3.89082C3.72477 3.76855 5.50659 3.76855 5.50659 3.76855C5.50659 3.76855 7.28841 3.76855 7.73272 3.89082ZM4.97241 5.01497V6.79559L6.3969 5.90532L4.97241 5.01497Z" fill="white"/>
</svg>
